                                                                        S      1
,,9H(Unsaved),11Htwo_magnets,7Hunknown,7Hunknown,32,38,7,99,15,,1.,2,2HMG      1
M,1,0.08,15H20250124.101255,0.01,10000.,7Hunknown,7Hunknown,11,0,;      G      2
     186       1                                                00000000D      1
     186            -141       1       0                               0D      2
     186       2                                                00000000D      3
     186            -141       1       0                               0D      4
     514       3                                                00010000D      5
     514                       1       1                               0D      6
     514       4                                                00010000D      7
     514                       1       1                               0D      8
     510       5                                                00010000D      9
     510            -141       1       1                               0D     10
     510       6                                                00010000D     11
     510            -141       1       1                               0D     12
     510       7                                                00010000D     13
     510            -141       1       1                               0D     14
     510       8                                                00010000D     15
     510            -141       1       1                               0D     16
     510       9                                                00010000D     17
     510            -141       1       1                               0D     18
     510      10                                                00010000D     19
     510            -141       1       1                               0D     20
     510      11                                                00010000D     21
     510            -141       1       1                               0D     22
     510      12                                                00010000D     23
     510            -141       1       1                               0D     24
     510      13                                                00010000D     25
     510            -141       1       1                               0D     26
     510      14                                                00010000D     27
     510            -141       1       1                               0D     28
     510      15                                                00010000D     29
     510            -141       1       1                               0D     30
     510      16                                                00010000D     31
     510            -141       1       1                               0D     32
     508      17                                                00010000D     33
     508                       1       1                               0D     34
     508      18                                                00010000D     35
     508                       1       1                               0D     36
     508      19                                                00010000D     37
     508                       1       1                               0D     38
     508      20                                                00010000D     39
     508                       1       1                               0D     40
     508      21                                                00010000D     41
     508                       1       1                               0D     42
     508      22                                                00010000D     43
     508                       1       1                               0D     44
     508      23                                                00010000D     45
     508                       1       1                               0D     46
     508      24                                                00010000D     47
     508                       1       1                               0D     48
     508      25                                                00010000D     49
     508                       1       1                               0D     50
     508      26                                                00010000D     51
     508                       1       1                               0D     52
     508      27                                                00010000D     53
     508                       1       1                               0D     54
     508      28                                                00010000D     55
     508                       1       1                               0D     56
     126      29                                                00010000D     57
     126       0               2       0                               0D     58
     126      31                                                00010000D     59
     126       0               2       0                               0D     60
     126      33                                                00010000D     61
     126       0               2       0                               0D     62
     126      35                                                00010000D     63
     126       0               2       0                               0D     64
     126      37                                                00010000D     65
     126       0               3       0                               0D     66
     126      40                                                00010000D     67
     126       0               3       0                               0D     68
     126      43                                                00010000D     69
     126       0               2       0                               0D     70
     126      45                                                00010000D     71
     126       0               2       0                               0D     72
     126      47                                                00010000D     73
     126       0               2       0                               0D     74
     126      49                                                00010000D     75
     126       0               2       0                               0D     76
     126      51                                                00010000D     77
     126       0               3       0                               0D     78
     126      54                                                00010000D     79
     126       0               3       0                               0D     80
     126      57                                                00010000D     81
     126       0               3       0                               0D     82
     126      60                                                00010000D     83
     126       0               2       0                               0D     84
     126      62                                                00010000D     85
     126       0               3       0                               0D     86
     126      65                                                00010000D     87
     126       0               2       0                               0D     88
     126      67                                                00010000D     89
     126       0               2       0                               0D     90
     126      69                                                00010000D     91
     126       0               2       0                               0D     92
     126      71                                                00010000D     93
     126       0               2       0                               0D     94
     126      73                                                00010000D     95
     126       0               3       0                               0D     96
     126      76                                                00010000D     97
     126       0               3       0                               0D     98
     126      79                                                00010000D     99
     126       0               2       0                               0D    100
     126      81                                                00010000D    101
     126       0               2       0                               0D    102
     126      83                                                00010000D    103
     126       0               2       0                               0D    104
     128      85                                                00010000D    105
     128       0    -141       4       0                               0D    106
     128      89                                                00010000D    107
     128       0    -141       5       0                               0D    108
     128      94                                                00010000D    109
     128       0    -141       4       0                               0D    110
     128      98                                                00010000D    111
     128       0    -141       5       0                               0D    112
     128     103                                                00010000D    113
     128       0    -141       6       0                               0D    114
     128     109                                                00010000D    115
     128       0    -141       6       0                               0D    116
     128     115                                                00010000D    117
     128       0    -141       5       0                               0D    118
     128     120                                                00010000D    119
     128       0    -141       4       0                               0D    120
     128     124                                                00010000D    121
     128       0    -141       5       0                               0D    122
     128     129                                                00010000D    123
     128       0    -141       4       0                               0D    124
     128     133                                                00010000D    125
     128       0    -141       6       0                               0D    126
     128     139                                                00010000D    127
     128       0    -141       6       0                               0D    128
     502     145                                                00010000D    129
     502                       4       1                               0D    130
     502     149                                                00010000D    131
     502                       4       1                               0D    132
     504     153                                                00010001D    133
     504                       3       1                               0D    134
     504     156                                                00010001D    135
     504                       3       1                               0D    136
     406     159                                                00000000D    137
     406                       1      15                               0D    138
     406     160                                                00000000D    139
     406                       1      15                               0D    140
     314     161                                                00000200D    141
     314                       2       0                               0D    142
186,5,1,0,0,1,137;                                                     1P      1
186,7,1,0,0,1,139;                                                     3P      2
514,6,9,1,11,1,13,1,15,1,17,1,19,1;                                    5P      3
514,6,21,1,23,1,25,1,27,1,29,1,31,1;                                   7P      4
510,105,1,1,33;                                                        9P      5
510,107,1,1,35;                                                       11P      6
510,109,1,1,37;                                                       13P      7
510,111,1,1,39;                                                       15P      8
510,113,1,1,41;                                                       17P      9
510,115,1,1,43;                                                       19P     10
510,117,1,1,45;                                                       21P     11
510,119,1,1,47;                                                       23P     12
510,121,1,1,49;                                                       25P     13
510,123,1,1,51;                                                       27P     14
510,125,1,1,53;                                                       29P     15
510,127,1,1,55;                                                       31P     16
508,4,0,133,1,1,0,0,133,2,1,0,0,133,3,0,0,0,133,4,0,0;                33P     17
508,4,0,133,5,1,0,0,133,4,1,0,0,133,6,0,0,0,133,7,0,0;                35P     18
508,4,0,133,8,1,0,0,133,7,1,0,0,133,9,0,0,0,133,10,0,0;               37P     19
508,4,0,133,11,1,0,0,133,10,1,0,0,133,12,0,0,0,133,2,0,0;             39P     20
508,4,0,133,12,1,0,0,133,9,1,0,0,133,6,1,0,0,133,3,1,0;               41P     21
508,4,0,133,11,0,0,0,133,1,0,0,0,133,5,0,0,0,133,8,0,0;               43P     22
508,4,0,135,1,0,0,0,135,2,1,0,0,135,3,0,0,0,135,4,0,0;                45P     23
508,4,0,135,5,0,0,0,135,4,1,0,0,135,6,0,0,0,135,7,0,0;                47P     24
508,4,0,135,8,0,0,0,135,7,1,0,0,135,9,0,0,0,135,10,0,0;               49P     25
508,4,0,135,11,0,0,0,135,10,1,0,0,135,12,0,0,0,135,2,0,0;             51P     26
508,4,0,135,12,1,0,0,135,9,1,0,0,135,6,1,0,0,135,3,1,0;               53P     27
508,4,0,135,11,1,0,0,135,1,1,0,0,135,5,1,0,0,135,8,1,0;               55P     28
126,1,1,0,0,1,0,0.,0.,2.,2.,1.,1.,-4.,5.00000007450581,0.,-24.,       57P     29
5.00000007450581,0.,0.,2.,0.,0.,0.;                                   57P     30
126,1,1,0,0,1,0,0.,0.,0.8,0.8,1.,1.,-24.,5.00000007450581,0.,         59P     31
-24.,5.00000007450581,8.,0.,0.8,0.,0.,0.;                             59P     32
126,1,1,0,0,1,0,0.,0.,2.,2.,1.,1.,-4.,5.00000007450581,8.,-24.,       61P     33
5.00000007450581,8.,0.,2.,0.,0.,0.;                                   61P     34
126,1,1,0,0,1,0,0.,0.,0.8,0.8,1.,1.,-4.,5.00000007450581,0.,-4.,      63P     35
5.00000007450581,8.,0.,0.8,0.,0.,0.;                                  63P     36
126,1,1,0,0,1,0,0.,0.,1.00000001490116,1.00000001490116,1.,1.,        65P     37
-4.,-5.00000007450581,0.,-4.,5.00000007450581,0.,0.,                  65P     38
1.00000001490116,0.,0.,0.;                                            65P     39
126,1,1,0,0,1,0,0.,0.,1.00000001490116,1.00000001490116,1.,1.,        67P     40
-4.,-5.00000007450581,8.,-4.,5.00000007450581,8.,0.,                  67P     41
1.00000001490116,0.,0.,0.;                                            67P     42
126,1,1,0,0,1,0,0.,0.,0.8,0.8,1.,1.,-4.,-5.00000007450581,0.,         69P     43
-4.,-5.00000007450581,8.,0.,0.8,0.,0.,0.;                             69P     44
126,1,1,0,0,1,0,0.,0.,2.,2.,1.,1.,-24.,-5.00000007450581,0.,-4.,      71P     45
-5.00000007450581,0.,0.,2.,0.,0.,0.;                                  71P     46
126,1,1,0,0,1,0,0.,0.,2.,2.,1.,1.,-24.,-5.00000007450581,8.,-4.,      73P     47
-5.00000007450581,8.,0.,2.,0.,0.,0.;                                  73P     48
126,1,1,0,0,1,0,0.,0.,0.8,0.8,1.,1.,-24.,-5.00000007450581,0.,        75P     49
-24.,-5.00000007450581,8.,0.,0.8,0.,0.,0.;                            75P     50
126,1,1,0,0,1,0,0.,0.,1.00000001490116,1.00000001490116,1.,1.,        77P     51
-24.,5.00000007450581,0.,-24.,-5.00000007450581,0.,0.,                77P     52
1.00000001490116,0.,0.,0.;                                            77P     53
126,1,1,0,0,1,0,0.,0.,1.00000001490116,1.00000001490116,1.,1.,        79P     54
-24.,5.00000007450581,8.,-24.,-5.00000007450581,8.,0.,                79P     55
1.00000001490116,0.,0.,0.;                                            79P     56
126,1,1,0,0,1,0,0.,0.,1.00000001490116,1.00000001490116,1.,1.,        81P     57
4.,-5.00000007450581,0.,4.,5.00000007450581,0.,0.,                    81P     58
1.00000001490116,0.,0.,0.;                                            81P     59
126,1,1,0,0,1,0,0.,0.,0.8,0.8,1.,1.,4.,-5.00000007450581,0.,4.,       83P     60
-5.00000007450581,8.,0.,0.8,0.,0.,0.;                                 83P     61
126,1,1,0,0,1,0,-1.00000001490116,-1.00000001490116,0.,0.,1.,1.,      85P     62
4.,5.00000007450581,8.,4.,-5.00000007450581,8.,                       85P     63
-1.00000001490116,0.,0.,0.,0.;                                        85P     64
126,1,1,0,0,1,0,0.,0.,0.8,0.8,1.,1.,4.,5.00000007450581,0.,4.,        87P     65
5.00000007450581,8.,0.,0.8,0.,0.,0.;                                  87P     66
126,1,1,0,0,1,0,0.,0.,2.,2.,1.,1.,4.,5.00000007450581,0.,24.,         89P     67
5.00000007450581,0.,0.,2.,0.,0.,0.;                                   89P     68
126,1,1,0,0,1,0,-2.,-2.,0.,0.,1.,1.,24.,5.00000007450581,8.,4.,       91P     69
5.00000007450581,8.,-2.,0.,0.,0.,0.;                                  91P     70
126,1,1,0,0,1,0,0.,0.,0.8,0.8,1.,1.,24.,5.00000007450581,0.,24.,      93P     71
5.00000007450581,8.,0.,0.8,0.,0.,0.;                                  93P     72
126,1,1,0,0,1,0,0.,0.,1.00000001490116,1.00000001490116,1.,1.,        95P     73
24.,5.00000007450581,0.,24.,-5.00000007450581,0.,0.,                  95P     74
1.00000001490116,0.,0.,0.;                                            95P     75
126,1,1,0,0,1,0,-1.00000001490116,-1.00000001490116,0.,0.,1.,1.,      97P     76
24.,-5.00000007450581,8.,24.,5.00000007450581,8.,                     97P     77
-1.00000001490116,0.,0.,0.,0.;                                        97P     78
126,1,1,0,0,1,0,0.,0.,0.8,0.8,1.,1.,24.,-5.00000007450581,0.,         99P     79
24.,-5.00000007450581,8.,0.,0.8,0.,0.,0.;                             99P     80
126,1,1,0,0,1,0,0.,0.,2.,2.,1.,1.,24.,-5.00000007450581,0.,4.,       101P     81
-5.00000007450581,0.,0.,2.,0.,0.,0.;                                 101P     82
126,1,1,0,0,1,0,-2.,-2.,0.,0.,1.,1.,4.,-5.00000007450581,8.,24.,     103P     83
-5.00000007450581,8.,-2.,0.,0.,0.,0.;                                103P     84
128,1,1,1,1,0,0,1,0,0,-0.001,-0.001,2.001,2.001,-0.001,-0.001,       105P     85
0.801,0.801,1.,1.,1.,1.,-3.99,5.00000007450581,-0.01,-24.01,         105P     86
5.00000007450581,-0.01,-3.99,5.00000007450581,8.01,-24.01,           105P     87
5.00000007450581,8.01,-0.001,2.001,-0.001,0.801;                     105P     88
128,1,1,1,1,0,0,1,0,0,-0.001,-0.001,1.00100001490116,                107P     89
1.00100001490116,-0.001,-0.001,0.801,0.801,1.,1.,1.,1.,-4.,          107P     90
-5.01000007450581,-0.01,-4.,5.0100000745058,-0.01,-4.,               107P     91
-5.01000007450581,8.01,-4.,5.0100000745058,8.01,-0.001,              107P     92
1.00100001490116,-0.001,0.801;                                       107P     93
128,1,1,1,1,0,0,1,0,0,-0.001,-0.001,2.001,2.001,-0.001,-0.001,       109P     94
0.801,0.801,1.,1.,1.,1.,-24.01,-5.00000007450581,-0.01,-3.99,        109P     95
-5.00000007450581,-0.01,-24.01,-5.00000007450581,8.01,-3.99,         109P     96
-5.00000007450581,8.01,-0.001,2.001,-0.001,0.801;                    109P     97
128,1,1,1,1,0,0,1,0,0,-0.001,-0.001,1.00100001490116,                111P     98
1.00100001490116,-0.001,-0.001,0.801,0.801,1.,1.,1.,1.,-24.,         111P     99
5.01000007450581,-0.01,-24.,-5.0100000745058,-0.01,-24.,             111P    100
5.01000007450581,8.01,-24.,-5.0100000745058,8.01,-0.001,             111P    101
1.00100001490116,-0.001,0.801;                                       111P    102
128,1,1,1,1,0,0,1,0,0,-1.001,-1.001,1.001,1.001,                     113P    103
-0.501000007450581,-0.501000007450581,0.501000007450581,             113P    104
0.501000007450581,1.,1.,1.,1.,-24.01,-5.01000007450581,8.,-3.99,     113P    105
-5.01000007450581,8.,-24.01,5.01000007450581,8.,-3.99,               113P    106
5.01000007450581,8.,-1.001,1.001,-0.501000007450581,                 113P    107
0.501000007450581;                                                   113P    108
128,1,1,1,1,0,0,1,0,0,-1.001,-1.001,1.001,1.001,                     115P    109
-0.501000007450581,-0.501000007450581,0.501000007450581,             115P    110
0.501000007450581,1.,1.,1.,1.,-3.99,-5.01000007450581,0.,-24.01,     115P    111
-5.01000007450581,0.,-3.99,5.01000007450581,0.,-24.01,               115P    112
5.01000007450581,0.,-1.001,1.001,-0.501000007450581,                 115P    113
0.501000007450581;                                                   115P    114
128,1,1,1,1,0,0,1,0,0,-0.001,-0.001,1.00100001490116,                117P    115
1.00100001490116,-0.001,-0.001,0.801,0.801,1.,1.,1.,1.,4.,           117P    116
5.01000007450581,-0.01,4.,-5.0100000745058,-0.01,4.,                 117P    117
5.01000007450581,8.01,4.,-5.0100000745058,8.01,-0.001,               117P    118
1.00100001490116,-0.001,0.801;                                       117P    119
128,1,1,1,1,0,0,1,0,0,-0.001,-0.001,2.001,2.001,-0.001,-0.001,       119P    120
0.801,0.801,1.,1.,1.,1.,24.01,5.00000007450581,-0.01,3.99,           119P    121
5.00000007450581,-0.01,24.01,5.00000007450581,8.01,3.99,             119P    122
5.00000007450581,8.01,-0.001,2.001,-0.001,0.801;                     119P    123
128,1,1,1,1,0,0,1,0,0,-0.001,-0.001,1.00100001490116,                121P    124
1.00100001490116,-0.001,-0.001,0.801,0.801,1.,1.,1.,1.,24.,          121P    125
-5.01000007450581,-0.01,24.,5.0100000745058,-0.01,24.,               121P    126
-5.01000007450581,8.01,24.,5.0100000745058,8.01,-0.001,              121P    127
1.00100001490116,-0.001,0.801;                                       121P    128
128,1,1,1,1,0,0,1,0,0,-0.001,-0.001,2.001,2.001,-0.001,-0.001,       123P    129
0.801,0.801,1.,1.,1.,1.,3.99,-5.00000007450581,-0.01,24.01,          123P    130
-5.00000007450581,-0.01,3.99,-5.00000007450581,8.01,24.01,           123P    131
-5.00000007450581,8.01,-0.001,2.001,-0.001,0.801;                    123P    132
128,1,1,1,1,0,0,1,0,0,-1.001,-1.001,1.001,1.001,                     125P    133
-0.501000007450581,-0.501000007450581,0.501000007450581,             125P    134
0.501000007450581,1.,1.,1.,1.,3.99,-5.01000007450581,8.,24.01,       125P    135
-5.01000007450581,8.,3.99,5.01000007450581,8.,24.01,                 125P    136
5.01000007450581,8.,-1.001,1.001,-0.501000007450581,                 125P    137
0.501000007450581;                                                   125P    138
128,1,1,1,1,0,0,1,0,0,-1.001,-1.001,1.001,1.001,                     127P    139
-0.501000007450581,-0.501000007450581,0.501000007450581,             127P    140
0.501000007450581,1.,1.,1.,1.,24.01,-5.01000007450581,0.,3.99,       127P    141
-5.01000007450581,0.,24.01,5.01000007450581,0.,3.99,                 127P    142
5.01000007450581,0.,-1.001,1.001,-0.501000007450581,                 127P    143
0.501000007450581;                                                   127P    144
502,8,-4.,5.00000007450581,0.,-24.,5.00000007450581,0.,-24.,         129P    145
5.00000007450581,8.,-4.,5.00000007450581,8.,-4.,                     129P    146
-5.00000007450581,0.,-4.,-5.00000007450581,8.,-24.,                  129P    147
-5.00000007450581,0.,-24.,-5.00000007450581,8.;                      129P    148
502,8,4.,-5.00000007450581,0.,4.,5.00000007450581,0.,4.,             131P    149
-5.00000007450581,8.,4.,5.00000007450581,8.,24.,                     131P    150
5.00000007450581,0.,24.,5.00000007450581,8.,24.,                     131P    151
-5.00000007450581,0.,24.,-5.00000007450581,8.;                       131P    152
504,12,57,129,1,129,2,59,129,2,129,3,61,129,4,129,3,63,129,1,        133P    153
129,4,65,129,5,129,1,67,129,6,129,4,69,129,5,129,6,71,129,7,129,     133P    154
5,73,129,8,129,6,75,129,7,129,8,77,129,2,129,7,79,129,3,129,8;       133P    155
504,12,81,131,1,131,2,83,131,1,131,3,85,131,4,131,3,87,131,2,        135P    156
131,4,89,131,2,131,5,91,131,6,131,4,93,131,5,131,6,95,131,5,131,     135P    157
7,97,131,8,131,6,99,131,7,131,8,101,131,7,131,1,103,131,3,131,8;     135P    158
406,1,5HBody2;                                                       137P    159
406,1,5HBody3;                                                       139P    160
314,96.078431372549,96.078431372549,96.4705882352941,16HAluminum     141P    161
 - Satin;                                                            141P    162
S      1G      2D    142P    162                                        T      1
